<?xml version="1.0" encoding="utf-8"?>
<!-- Generator: Adobe Illustrator 20.1.0, SVG Export Plug-In . SVG Version: 6.00 Build 0)  -->
<svg version="1.1" id="Layer_1" xmlns="http://www.w3.org/2000/svg" xmlns:xlink="http://www.w3.org/1999/xlink" x="0px" y="0px"
	 viewBox="0 0 32 32" style="enable-background:new 0 0 32 32;" xml:space="preserve">
<style type="text/css">
	.st0{fill:#FFFFFF;}
	.st1{fill:#020202;}
	.st2{fill:#1CC507;}
	.st3{fill:#691AFA;}
	.st4{fill:#38BD28;}
</style>
<rect class="st0" width="32" height="32"/>
<g>
	<path class="st1" d="M9.6,18.7c0,0.1,0.1,0.3,0.1,0.4c0.1,0.6,0.2,1.1,0.3,1.7c0.1,0.4,0.1,0.7,0.2,1.1c0,0.1,0.1,0.2,0.1,0.3
		c0.2,0.6,0.3,1.1,0.5,1.7c0.1,0.2,0.1,0.4,0.2,0.6c0,0,0,0.1,0,0.1c-0.7,0.1-1.4,0.3-2.1,0.3c-6.2-0.1-5,1.3-6.1-5.9
		c-0.5-3.3,0.1-6.7,0.5-10c0.3-2.5,1.9-2.2,3.5-2.2c0.9,0,1.8,0.2,2.8,0.1c1.2,0,1.7,0.4,1.1,1.6c-0.2,0.6-0.3,1.2-0.5,1.8
		c-0.1,0.3-0.2,0.7-0.2,1c-0.1,0.3-0.1,0.6-0.2,0.9c0,0.3-0.1,0.5-0.1,0.8c-0.3,1.7-0.3,3.3-0.1,5C9.5,18.2,9.5,18.5,9.6,18.7z"/>
	<path class="st2" d="M19.1,29.2c-1.5,0.5-2.9,1-4.4,1.5c-0.9,0.3-1-0.6-1.3-1.1c-0.8-1.3-1.4-2.7-2.1-4c0.9-0.4,0-0.8,0-1.1
		c2.8-0.6,5.5-1.4,7.9-3c0,0,0,0,0,0c2.5-1.2,4.4-3,6.2-5c0.5-0.5,0.8-0.6,1.2,0c0.3,0.4,0.6,0.8,0.9,1.3c2.8,4.3,2.6,5-2.7,8.5
		c-1,0.7-2.1,1.2-3.1,1.8C20.7,28.2,19.9,28.6,19.1,29.2z"/>
	<path class="st3" d="M21.8,11.9c-0.1-0.1-0.2-0.1-0.2-0.2c-2.9-2.3-6.3-3.7-10-4.5C11,7.1,11,6.9,11.2,6.4c2.4-5.9,3.3-6.3,9.1-3.6
		c3.3,1.5,6.2,3.6,8.8,6.1c0.7,0.6,0.7,1.1,0.3,1.8c-0.8,1.6-1.7,3.1-2.9,4.5c-0.5,0.6-0.6,0.4-1,0C24.3,14.1,23.1,13,21.8,11.9z"/>
	<path class="st4" d="M19.1,29.2c0.7-0.6,1.6-1,2.5-1.2C20.8,28.4,20,28.8,19.1,29.2z"/>
	<path class="st4" d="M11.3,24.4c0,0.4,0.9,0.7,0,1.1c-0.2-0.3-0.3-0.7-0.5-1c0,0,0-0.1,0-0.1C11,24.4,11.2,24.4,11.3,24.4z"/>
</g>
</svg>
